<svg width="60" height="24" fill="none" xmlns="http://www.w3.org/2000/svg"><path d="M25 8.999h4v2h-4v-2z" fill="#332208"/><path d="M59.142 6.01l-6.793-.97A34.273 34.273 0 0048.499 3a33.678 33.678 0 00-13.931-3h-1.18a33.994 33.994 0 00-16.231 4.139l-3.428 1.87A23.63 23.63 0 002.294 9.108 4.565 4.565 0 000 13.061v5.937a1 1 0 001 1h3.358a5.978 5.978 0 0011.283 0h26.717a5.978 5.978 0 0011.283 0H54c.127 0 .253-.024.372-.071l3.239-1.3A3.781 3.781 0 0060 15.1V7a1 1 0 00-.858-.99zM13.919 18.797a4 4 0 11-7.838-1.602 4 4 0 017.838 1.602zm18.08-.8H16a6 6 0 10-12 0H2V13.06a2.558 2.558 0 011.288-2.217A21.622 21.622 0 0114 8h18v10zM32 6H17.923l.193-.106A31.977 31.977 0 0132 2.044V6zm2-4h.567c4.03-.005 8.023.76 11.766 2.254L44.586 6H34V2zm17.92 16.798a4 4 0 11-7.838-1.602 4 4 0 017.838 1.602zM58 9h-3v2h3v4.1a1.79 1.79 0 01-1.132 1.67L54 17.921c0-.092-.012-.183-.018-.275-.006-.092-.008-.2-.018-.3-.01-.1-.03-.2-.046-.3-.016-.1-.028-.2-.048-.29-.02-.092-.05-.193-.075-.288-.026-.095-.046-.19-.076-.284-.03-.093-.066-.182-.1-.273-.034-.09-.065-.184-.1-.275-.035-.09-.082-.172-.124-.257-.042-.085-.083-.178-.13-.264-.047-.085-.1-.159-.145-.239a3.22 3.22 0 00-.157-.252c-.057-.083-.11-.147-.165-.222-.055-.073-.117-.16-.181-.237a2.84 2.84 0 00-.186-.2c-.062-.063-.131-.148-.2-.218-.07-.07-.137-.126-.206-.188-.069-.061-.143-.135-.22-.2-.075-.064-.152-.114-.228-.171-.076-.057-.152-.118-.232-.172-.08-.053-.17-.1-.256-.155a2.921 2.921 0 00-.237-.143c-.08-.043-.182-.089-.274-.133-.092-.044-.164-.083-.249-.118-.085-.037-.2-.074-.3-.11-.1-.036-.165-.064-.25-.091-.114-.035-.23-.06-.347-.09-.076-.017-.149-.041-.226-.057-.123-.025-.249-.04-.374-.058-.074-.01-.145-.026-.219-.033a6.005 6.005 0 00-6.61 5.969H34V8h11c.265 0 .52-.105.707-.293L48.3 5.113a32.067 32.067 0 013.17 1.734c.118.074.25.122.388.142L58 7.866v1.133z" fill="#332208"/></svg>