<svg width="60" height="48" fill="none" xmlns="http://www.w3.org/2000/svg"><path d="M38.454 41.909H5.576a3.822 3.822 0 01-3.818-3.818V11.788A3.822 3.822 0 015.576 7.97a.879.879 0 000-1.758A5.582 5.582 0 000 11.788V38.09a5.582 5.582 0 005.576 5.576h32.878a.879.879 0 000-1.758zm15.97-35.697H25.303a.879.879 0 100 1.758h29.121a3.822 3.822 0 013.818 3.818V38.09a3.822 3.822 0 01-3.818 3.818h-.94a.879.879 0 000 1.758h.94A5.582 5.582 0 0060 38.09V11.788a5.582 5.582 0 00-5.576-5.576zM9.334 7.97a4.763 4.763 0 014.757 4.757.879.879 0 001.758 0 4.763 4.763 0 014.757-4.757.879.879 0 000-1.758 4.763 4.763 0 01-4.757-4.757.879.879 0 00-1.758 0 4.763 4.763 0 01-4.757 4.757.879.879 0 100 1.758zm5.636-3.25a6.57 6.57 0 002.37 2.371c-.98.57-1.8 1.39-2.37 2.37a6.564 6.564 0 00-2.371-2.37c.98-.57 1.8-1.39 2.37-2.37zm34.757 37.189a2.882 2.882 0 01-2.879-2.879.879.879 0 00-1.757 0 2.882 2.882 0 01-2.88 2.879.879.879 0 000 1.758 2.882 2.882 0 012.88 2.878.879.879 0 001.757 0 2.882 2.882 0 012.879-2.878.879.879 0 100-1.758zm-3.758 1.923a4.677 4.677 0 00-1.044-1.044c.401-.29.754-.643 1.044-1.044.29.4.644.754 1.045 1.044a4.68 4.68 0 00-1.045 1.044z" fill="#C5AC2D"/><path d="M13.276 16.545a.879.879 0 00-.879.88v15.017c0 .428.308.794.73.866.061.01.15.026 1.78.026.791 0 1.946-.004 3.637-.013a.879.879 0 00-.005-1.758h-.005c-1.333.007-3.284.015-4.38.012v-14.15a.88.88 0 00-.878-.88zm24.01 16.628a.878.878 0 001.225-.212l4.951-7.029 4.944 7.028a.878.878 0 101.438-1.011l-5.306-7.543L49.1 17.93a.88.88 0 00-1.438-1.012l-4.199 5.96-4.193-5.96a.879.879 0 00-1.437 1.012l4.555 6.475-5.314 7.543a.88.88 0 00.212 1.225zm-12.544-.77c.964.616 2.055.929 3.243.93h.01a6.318 6.318 0 002.87-.662c2.169-1.092 3.315-2.792 3.315-4.915V17.424a.879.879 0 10-1.758 0v10.332c0 1.455-.768 2.55-2.348 3.345a4.575 4.575 0 01-2.08.475h-.007a4.208 4.208 0 01-2.298-.655c-1.369-.874-1.953-1.817-1.953-3.154V17.424a.879.879 0 10-1.758 0v10.343c0 1.931.905 3.448 2.764 4.636z" fill="#C5AC2D"/></svg>