<svg width="47" height="32" fill="none" xmlns="http://www.w3.org/2000/svg"><path d="M27.713 6.35a3.992 3.992 0 00-.651-2.198 3.904 3.904 0 00-1.744-1.459 3.838 3.838 0 00-2.25-.228 3.873 3.873 0 00-1.994 1.078 3.968 3.968 0 00-1.067 2.022 4.004 4.004 0 00.22 2.284 3.93 3.93 0 001.433 1.774 3.85 3.85 0 004.91-.487 3.98 3.98 0 001.143-2.787zm-3.89 2.775a2.706 2.706 0 01-1.517-.472 2.767 2.767 0 01-1.003-1.248 2.815 2.815 0 01-.152-1.603 2.788 2.788 0 01.75-1.419 2.708 2.708 0 012.98-.597c.498.21.925.566 1.225 1.022a2.805 2.805 0 01-.346 3.505 2.722 2.722 0 01-1.938.812zm-12.65 6.982a2.659 2.659 0 00-1.49.463c-.441.3-.785.726-.987 1.225a2.765 2.765 0 00-.15 1.575 2.74 2.74 0 00.736 1.394 2.652 2.652 0 002.927.588c.49-.206.91-.556 1.205-1.004a2.757 2.757 0 00-.339-3.443 2.673 2.673 0 00-1.902-.798zm0 4.29a1.523 1.523 0 01-.854-.267 1.559 1.559 0 01-.564-.703 1.585 1.585 0 01.338-1.701 1.518 1.518 0 011.678-.336c.28.119.52.319.69.576a1.58 1.58 0 01-.196 1.974c-.29.293-.683.458-1.092.457zm17.012.78a2.28 2.28 0 00-1.278.396 2.33 2.33 0 00-.846 1.05 2.369 2.369 0 00.503 2.545 2.271 2.271 0 002.509.504 2.31 2.31 0 001.032-.86 2.362 2.362 0 00-.29-2.951 2.29 2.29 0 00-1.63-.684zm0 3.51a1.143 1.143 0 01-.641-.2 1.169 1.169 0 01-.423-.528 1.19 1.19 0 01.253-1.277 1.14 1.14 0 011.26-.252c.21.089.39.24.517.432a1.185 1.185 0 01-.147 1.482 1.15 1.15 0 01-.82.343zm12.257-11.468c.455-.001.9-.14 1.278-.397a2.33 2.33 0 00.845-1.05 2.37 2.37 0 00-.502-2.545 2.27 2.27 0 00-2.508-.504 2.31 2.31 0 00-1.033.86 2.362 2.362 0 00.29 2.951 2.29 2.29 0 001.63.685zm0-3.51c.228 0 .451.07.64.2.19.13.337.313.424.527a1.19 1.19 0 01-.254 1.277 1.15 1.15 0 01-1.259.252 1.16 1.16 0 01-.518-.432 1.186 1.186 0 01.147-1.482 1.15 1.15 0 01.82-.343z" fill="#332208"/><path d="M42.113 15.471l1.512-2.045a4.1 4.1 0 00.816-2.7c-.137-2.118-1.845-3.777-3.89-3.777s-3.753 1.66-3.89 3.776c-.03.48.03.963.174 1.422l-9.454.176 1.46-1.975a6.542 6.542 0 001.305-4.316 6.606 6.606 0 00-1.87-4.208 6.124 6.124 0 00-1.989-1.35 6.05 6.05 0 00-4.693 0 6.125 6.125 0 00-1.99 1.35 6.606 6.606 0 00-1.869 4.208c-.097 1.478.365 3.009 1.306 4.315l1.262 1.707-13.435.09a.581.581 0 00-.539.394L.032 31.23a.59.59 0 00.28.706.567.567 0 00.262.064h45.854a.567.567 0 00.462-.237.586.586 0 00.085-.519l-4.861-15.773zm-4.308-4.67c.084-1.321 1.135-2.688 2.745-2.688 1.611 0 2.661 1.367 2.746 2.69a2.92 2.92 0 01-.588 1.924l-2.158 2.919-2.153-2.913a2.999 2.999 0 01-.592-1.932zM37.39 13.3l.087.126 2.616 3.539a.575.575 0 00.458.233.566.566 0 00.459-.233l.256-.346.651 2.114-8.887.002-.644-5.342 5.004-.093zM19.962 9.654c-.777-1.08-1.162-2.338-1.082-3.545a5.435 5.435 0 011.537-3.463 4.98 4.98 0 011.617-1.097 4.919 4.919 0 013.814 0 4.98 4.98 0 011.617 1.097 5.436 5.436 0 011.538 3.464 5.368 5.368 0 01-1.08 3.539l-3.982 5.388-3.979-5.383zM1.375 30.836L4.353 22l3.39-.01 3.105 4.2a.575.575 0 00.458.234.566.566 0 00.46-.233l2.473-3.348.03 7.993H1.376zm12.67-9.669l-2.739 3.705-2.734-3.699c-.537-.747-.803-1.614-.749-2.445.108-1.675 1.44-3.407 3.483-3.407 2.044 0 3.376 1.732 3.484 3.408a3.7 3.7 0 01-.745 2.438zm9.034 3.57a.581.581 0 00-.171.415l.003 5.684h-7.495L15.38 21.2c.416-.78.608-1.662.554-2.547-.162-2.52-2.194-4.495-4.627-4.495s-4.465 1.974-4.627 4.494a4.77 4.77 0 00.386 2.177l-2.32.007 2.537-7.53 13.877-.092 2.323 3.143a.576.576 0 00.459.233.566.566 0 00.458-.233l2.11-2.854 4.724-.088.72 5.973a.586.586 0 00.189.366.57.57 0 00.38.146l9.753-.003 1.438 4.667-11.644.02c.102-.4.14-.813.114-1.226-.136-2.117-1.845-3.776-3.89-3.776s-3.754 1.659-3.89 3.775c-.026.414.014.829.119 1.23l-1.033-.016a.55.55 0 00-.411.167zm7.372.622l-2.157 2.919-2.153-2.913a2.999 2.999 0 01-.593-1.932c.085-1.321 1.135-2.688 2.746-2.688 1.61 0 2.66 1.367 2.746 2.69a2.92 2.92 0 01-.589 1.924zm-6.394 5.477l-.002-5.094.965.014c.063.103.129.203.2.301l2.615 3.54a.575.575 0 00.459.232.566.566 0 00.458-.233l2.616-3.538c.074-.1.144-.204.21-.31l12.494-.022 1.575 5.11h-21.59z" fill="#332208"/></svg>