<svg width="25" height="25" fill="none" xmlns="http://www.w3.org/2000/svg"><path d="M12.5 0C5.607 0 0 5.608 0 12.5S5.607 25 12.5 25 25 19.392 25 12.5 19.393 0 12.5 0zm0 23.958c-6.318 0-11.458-5.14-11.458-11.458 0-6.318 5.14-11.458 11.458-11.458 6.318 0 11.458 5.14 11.458 11.458 0 6.318-5.14 11.458-11.458 11.458z" fill="#FEFEFE"/><path d="M17.47 12.062l-7.292-4.687a.52.52 0 00-.803.437v9.375a.52.52 0 00.803.438l7.291-4.687a.522.522 0 000-.876zm-7.053 4.171V8.767l5.807 3.733-5.807 3.733z" fill="#FEFEFE"/></svg>